RoundelLatin-Light.ufo
<glyph name="numbersign" format="1">
  <advance width="599"/>
  <unicode hex="0023"/>
  <outline>
    <contour>
      <point x="227" y="640" type="line"/>
      <point x="97" y="0" type="line"/>
      <point x="127" y="0" type="line"/>
      <point x="257" y="640" type="line"/>
    </contour>
    <contour>
      <point x="24" y="220" type="line"/>
      <point x="24" y="220"/>
      <point x="19" y="193"/>
      <point x="19" y="193" type="curve"/>
      <point x="534" y="193" type="line"/>
      <point x="539" y="220" type="line"/>
    </contour>
    <contour>
      <point x="60" y="423" type="curve"/>
      <point x="575" y="423" type="line"/>
      <point x="580" y="450" type="line"/>
      <point x="65" y="450" type="line"/>
      <point x="65" y="450"/>
      <point x="60" y="423"/>
    </contour>
    <contour>
      <point x="345" y="0" type="line"/>
      <point x="375" y="0" type="line"/>
      <point x="505" y="640" type="line"/>
      <point x="475" y="640" type="line"/>
    </contour>
  </outline>
</glyph>
<glyph name="quotesingle" format="1">
  <advance width="127"/>
  <unicode hex="0027"/>
  <outline>
    <contour>
      <point x="78" y="688" type="line"/>
      <point x="49" y="688" type="line"/>
      <point x="54" y="504" type="line"/>
      <point x="73" y="504" type="line"/>
    </contour>
  </outline>
</glyph>
<glyph name="asterisk" format="1">
  <advance width="450"/>
  <unicode hex="002A"/>
  <outline>
    <contour>
      <point x="313" y="384" type="line"/>
      <point x="347" y="408" type="line"/>
      <point x="244" y="535" type="line"/>
      <point x="401" y="575" type="line"/>
      <point x="388" y="615" type="line"/>
      <point x="236" y="556" type="line"/>
      <point x="246" y="718" type="line"/>
      <point x="204" y="718" type="line"/>
      <point x="213" y="555" type="line"/>
      <point x="62" y="615" type="line"/>
      <point x="49" y="575" type="line"/>
      <point x="207" y="533" type="line"/>
      <point x="103" y="408" type="line"/>
      <point x="137" y="384" type="line"/>
      <point x="226" y="521" type="line"/>
    </contour>
  </outline>
</glyph>
<glyph name="plus" format="1">
  <advance width="499"/>
  <unicode hex="002B"/>
  <outline>
    <contour>
      <point x="265" y="537" type="line"/>
      <point x="235" y="537" type="line"/>
      <point x="235" y="151" type="line"/>
      <point x="265" y="151" type="line"/>
    </contour>
    <contour>
      <point x="69" y="330" type="line"/>
      <point x="431" y="330" type="line"/>
      <point x="431" y="358" type="line"/>
      <point x="69" y="358" type="line"/>
    </contour>
  </outline>
</glyph>
<glyph name="one" format="1">
  <advance width="289"/>
  <unicode hex="0031"/>
  <outline>
    <contour>
      <point x="55" y="688" type="line"/>
      <point x="35" y="660" type="line"/>
      <point x="155" y="660" type="line"/>
      <point x="155" y="0" type="line"/>
      <point x="185" y="0" type="line"/>
      <point x="185" y="688" type="line"/>
    </contour>
  </outline>
</glyph>
<glyph name="greater" format="1">
  <advance width="499"/>
  <unicode hex="003E"/>
  <outline>
    <contour>
      <point x="69" y="169" type="line"/>
      <point x="69" y="136" type="line"/>
      <point x="431" y="334" type="line"/>
      <point x="431" y="356" type="line"/>
      <point x="69" y="553" type="line"/>
      <point x="69" y="520" type="line"/>
      <point x="421" y="332" type="line"/>
      <point x="419" y="358" type="line"/>
    </contour>
  </outline>
</glyph>
<glyph name="question" format="1">
  <advance width="525"/>
  <unicode hex="003F"/>
  <outline>
    <contour>
      <point x="469" y="525" type="curve"/>
      <point x="469" y="643"/>
      <point x="378" y="698"/>
      <point x="270" y="698" type="curve"/>
      <point x="148" y="698"/>
      <point x="59" y="628"/>
      <point x="29" y="597" type="curve"/>
      <point x="29" y="561" type="line"/>
      <point x="65" y="599"/>
      <point x="152" y="670"/>
      <point x="270" y="670" type="curve"/>
      <point x="375" y="670"/>
      <point x="439" y="611"/>
      <point x="439" y="525" type="curve"/>
      <point x="439" y="453"/>
      <point x="391" y="416"/>
      <point x="335" y="383" type="curve" smooth="yes"/>
      <point x="202" y="306" type="line" smooth="yes"/>
      <point x="202" y="205" type="line"/>
      <point x="232" y="205" type="line"/>
      <point x="232" y="293" type="line"/>
      <point x="357" y="365" type="line" smooth="yes"/>
      <point x="415" y="398"/>
      <point x="469" y="444"/>
    </contour>
    <contour>
      <point x="224" y="-5" type="curve" smooth="yes"/>
      <point x="242" y="-5"/>
      <point x="257" y="10"/>
      <point x="257" y="27" type="curve" smooth="yes"/>
      <point x="257" y="45"/>
      <point x="242" y="60"/>
      <point x="224" y="60" type="curve" smooth="yes"/>
      <point x="207" y="60"/>
      <point x="192" y="45"/>
      <point x="192" y="27" type="curve" smooth="yes"/>
      <point x="192" y="10"/>
      <point x="207" y="-5"/>
    </contour>
  </outline>
</glyph>
<glyph name="F" format="1">
  <advance width="594"/>
  <unicode hex="0046"/>
  <outline>
    <contour>
      <point x="104" y="688" type="line"/>
      <point x="104" y="0" type="line"/>
      <point x="134" y="0" type="line"/>
      <point x="134" y="688" type="line"/>
    </contour>
    <contour>
      <point x="120" y="660" type="line"/>
      <point x="555" y="660" type="line"/>
      <point x="555" y="688" type="line"/>
      <point x="120" y="688" type="line"/>
    </contour>
    <contour>
      <point x="120" y="316" type="line"/>
      <point x="505" y="316" type="line"/>
      <point x="505" y="344" type="line"/>
      <point x="120" y="344" type="line"/>
    </contour>
  </outline>
</glyph>
<glyph name="O" format="1">
  <advance width="819"/>
  <unicode hex="004F"/>
  <outline>
    <contour>
      <point x="410" y="-10" type="curve" smooth="yes"/>
      <point x="214" y="-10"/>
      <point x="64" y="136"/>
      <point x="64" y="343" type="curve" smooth="yes"/>
      <point x="64" y="552"/>
      <point x="214" y="698"/>
      <point x="410" y="698" type="curve" smooth="yes"/>
      <point x="605" y="698"/>
      <point x="755" y="552"/>
      <point x="755" y="343" type="curve" smooth="yes"/>
      <point x="755" y="136"/>
      <point x="605" y="-10"/>
    </contour>
    <contour>
      <point x="410" y="20" type="curve" smooth="yes"/>
      <point x="589" y="20"/>
      <point x="725" y="154"/>
      <point x="725" y="343" type="curve" smooth="yes"/>
      <point x="725" y="534"/>
      <point x="589" y="668"/>
      <point x="410" y="668" type="curve" smooth="yes"/>
      <point x="230" y="668"/>
      <point x="94" y="534"/>
      <point x="94" y="343" type="curve" smooth="yes"/>
      <point x="94" y="154"/>
      <point x="230" y="20"/>
    </contour>
  </outline>
</glyph>
<glyph name="P" format="1">
  <advance width="637"/>
  <unicode hex="0050"/>
  <outline>
    <contour>
      <point x="104" y="688" type="line"/>
      <point x="104" y="0" type="line"/>
      <point x="134" y="0" type="line"/>
      <point x="134" y="688" type="line"/>
    </contour>
    <contour>
      <point x="124" y="301" type="line"/>
      <point x="124" y="273" type="line"/>
      <point x="358" y="273" type="line" smooth="yes"/>
      <point x="493" y="273"/>
      <point x="593" y="342"/>
      <point x="593" y="478" type="curve" smooth="yes"/>
      <point x="593" y="623"/>
      <point x="493" y="688"/>
      <point x="358" y="688" type="curve" smooth="yes"/>
      <point x="124" y="688" type="line"/>
      <point x="124" y="660" type="line"/>
      <point x="358" y="660" type="line" smooth="yes"/>
      <point x="477" y="660"/>
      <point x="563" y="607"/>
      <point x="563" y="478" type="curve" smooth="yes"/>
      <point x="563" y="358"/>
      <point x="476" y="301"/>
      <point x="358" y="301" type="curve" smooth="yes"/>
    </contour>
  </outline>
</glyph>
<glyph name="R" format="1">
  <advance width="660.0"/>
  <unicode hex="0052"/>
  <outline>
    <contour>
      <point x="104" y="688" type="line"/>
      <point x="104" y="0" type="line"/>
      <point x="134" y="0" type="line"/>
      <point x="134" y="688" type="line"/>
    </contour>
    <contour>
      <point x="128" y="313" type="line"/>
      <point x="363" y="313" type="line" smooth="yes"/>
      <point x="505" y="313"/>
      <point x="593" y="375"/>
      <point x="593" y="498" type="curve" smooth="yes"/>
      <point x="593" y="629"/>
      <point x="505" y="688"/>
      <point x="363" y="688" type="curve" smooth="yes"/>
      <point x="124" y="688" type="line"/>
      <point x="124" y="660" type="line"/>
      <point x="363" y="660" type="line" smooth="yes"/>
      <point x="486" y="660"/>
      <point x="563" y="613"/>
      <point x="563" y="498" type="curve" smooth="yes"/>
      <point x="563" y="392"/>
      <point x="485" y="341"/>
      <point x="363" y="341" type="curve" smooth="yes"/>
      <point x="128" y="341" type="line"/>
    </contour>
    <contour>
      <point x="278" y="317" type="line"/>
      <point x="561" y="0" type="line"/>
      <point x="599" y="0" type="line"/>
      <point x="313" y="317" type="line"/>
    </contour>
    <contour>
      <point x="321" y="344" type="move" name="center"/>
    </contour>
  </outline>
</glyph>
<glyph name="S" format="1">
  <advance width="571"/>
  <unicode hex="0053"/>
  <outline>
    <contour>
      <point x="487" y="157" type="curve"/>
      <point x="487" y="75"/>
      <point x="429" y="18"/>
      <point x="305" y="18" type="curve"/>
      <point x="204" y="18"/>
      <point x="114" y="58"/>
      <point x="54" y="98" type="curve"/>
      <point x="54" y="65" type="line"/>
      <point x="116" y="24"/>
      <point x="209" y="-10"/>
      <point x="308" y="-10" type="curve"/>
      <point x="429" y="-10"/>
      <point x="517" y="47"/>
      <point x="517" y="157" type="curve"/>
      <point x="517" y="267"/>
      <point x="452" y="303"/>
      <point x="327" y="346" type="curve" smooth="yes"/>
      <point x="252" y="372" type="line" smooth="yes"/>
      <point x="160" y="404"/>
      <point x="86" y="434"/>
      <point x="86" y="529" type="curve"/>
      <point x="86" y="608"/>
      <point x="149" y="670"/>
      <point x="272" y="670" type="curve"/>
      <point x="369" y="670"/>
      <point x="446" y="630"/>
      <point x="489" y="597" type="curve"/>
      <point x="489" y="633" type="line"/>
      <point x="449" y="665"/>
      <point x="369" y="698"/>
      <point x="272" y="698" type="curve"/>
      <point x="154" y="698"/>
      <point x="56" y="640"/>
      <point x="56" y="527" type="curve"/>
      <point x="56" y="419"/>
      <point x="142" y="381"/>
      <point x="225" y="352" type="curve" smooth="yes"/>
      <point x="320" y="319" type="line" smooth="yes"/>
      <point x="431" y="281"/>
      <point x="487" y="247"/>
    </contour>
  </outline>
</glyph>
<glyph name="T" format="1">
  <advance width="554"/>
  <unicode hex="0054"/>
  <outline>
    <contour>
      <point x="262" y="688" type="line"/>
      <point x="262" y="0" type="line"/>
      <point x="292" y="0" type="line"/>
      <point x="292" y="688" type="line"/>
    </contour>
    <contour>
      <point x="9" y="660" type="line"/>
      <point x="545" y="660" type="line"/>
      <point x="545" y="688" type="line"/>
      <point x="9" y="688" type="line"/>
    </contour>
  </outline>
</glyph>
<glyph name="W" format="1">
  <advance width="1007"/>
  <unicode hex="0057"/>
  <outline>
    <contour>
      <point x="229" y="0" type="line"/>
      <point x="262" y="0" type="line"/>
      <point x="504" y="654" type="line"/>
      <point x="746" y="0" type="line"/>
      <point x="778" y="0" type="line"/>
      <point x="982" y="688" type="line"/>
      <point x="950" y="688" type="line"/>
      <point x="761" y="41" type="line"/>
      <point x="522" y="688" type="line"/>
      <point x="485" y="688" type="line"/>
      <point x="246" y="39" type="line"/>
      <point x="57" y="688" type="line"/>
      <point x="25" y="688" type="line"/>
    </contour>
  </outline>
</glyph>
<glyph name="bracketleft" format="1">
  <advance width="280"/>
  <unicode hex="005B"/>
  <outline>
    <contour>
      <point x="104" y="-31" type="line"/>
      <point x="251" y="-31" type="line"/>
      <point x="251" y="-3" type="line"/>
      <point x="132" y="-3" type="line"/>
      <point x="132" y="691" type="line"/>
      <point x="251" y="691" type="line"/>
      <point x="251" y="719" type="line"/>
      <point x="104" y="719" type="line"/>
    </contour>
  </outline>
</glyph>
<glyph name="backslash" format="1">
  <advance width="406"/>
  <unicode hex="005C"/>
  <outline>
    <contour>
      <point x="359" y="-40" type="line"/>
      <point x="387" y="-40" type="line"/>
      <point x="47" y="790" type="line"/>
      <point x="19" y="790" type="line"/>
    </contour>
  </outline>
</glyph>
<glyph name="b" format="1">
  <advance width="597"/>
  <unicode hex="0062"/>
  <outline>
    <contour>
      <point x="119" y="698" type="line"/>
      <point x="119" y="27" type="line"/>
      <point x="99" y="53" type="line"/>
      <point x="150" y="35"/>
      <point x="208" y="18"/>
      <point x="284" y="18" type="curve" smooth="yes"/>
      <point x="419" y="18"/>
      <point x="508" y="109"/>
      <point x="508" y="275" type="curve" smooth="yes"/>
      <point x="508" y="416"/>
      <point x="431" y="512"/>
      <point x="307" y="512" type="curve"/>
      <point x="212" y="512"/>
      <point x="141" y="459"/>
      <point x="109" y="426" type="curve"/>
      <point x="109" y="457" type="line"/>
      <point x="137" y="487"/>
      <point x="212" y="540"/>
      <point x="307" y="540" type="curve"/>
      <point x="447" y="540"/>
      <point x="538" y="436"/>
      <point x="538" y="275" type="curve" smooth="yes"/>
      <point x="538" y="91"/>
      <point x="432" y="-10"/>
      <point x="284" y="-10" type="curve" smooth="yes"/>
      <point x="204" y="-10"/>
      <point x="142" y="8"/>
      <point x="89" y="27" type="curve"/>
      <point x="89" y="688" type="line"/>
    </contour>
  </outline>
</glyph>
<glyph name="c" format="1">
  <advance width="531"/>
  <unicode hex="0063"/>
  <outline>
    <contour>
      <point x="482" y="506" type="line"/>
      <point x="448" y="529"/>
      <point x="398" y="542"/>
      <point x="344" y="542" type="curve" smooth="yes"/>
      <point x="183" y="542"/>
      <point x="59" y="435"/>
      <point x="59" y="265" type="curve" smooth="yes"/>
      <point x="59" y="99"/>
      <point x="183" y="-10"/>
      <point x="344" y="-10" type="curve" smooth="yes"/>
      <point x="398" y="-10"/>
      <point x="448" y="5"/>
      <point x="482" y="27" type="curve"/>
      <point x="482" y="58" type="line"/>
      <point x="453" y="37"/>
      <point x="401" y="20"/>
      <point x="344" y="20" type="curve" smooth="yes"/>
      <point x="200" y="20"/>
      <point x="89" y="117"/>
      <point x="89" y="265" type="curve" smooth="yes"/>
      <point x="89" y="416"/>
      <point x="200" y="512"/>
      <point x="344" y="512" type="curve" smooth="yes"/>
      <point x="401" y="512"/>
      <point x="454" y="497"/>
      <point x="482" y="475" type="curve"/>
    </contour>
    <contour>
      <point x="320" y="266" type="move" name="center"/>
    </contour>
  </outline>
</glyph>
<glyph name="d" format="1">
  <advance width="597"/>
  <unicode hex="0064"/>
  <outline>
    <contour>
      <point x="328" y="512" type="curve"/>
      <point x="400" y="512"/>
      <point x="443" y="494"/>
      <point x="488" y="477" type="curve"/>
      <point x="498" y="503" type="line"/>
      <point x="451" y="521"/>
      <point x="404" y="540"/>
      <point x="328" y="540" type="curve"/>
      <point x="170" y="540"/>
      <point x="59" y="434"/>
      <point x="59" y="250" type="curve" smooth="yes"/>
      <point x="59" y="89"/>
      <point x="150" y="-10"/>
      <point x="290" y="-10" type="curve"/>
      <point x="385" y="-10"/>
      <point x="460" y="43"/>
      <point x="488" y="73" type="curve"/>
      <point x="488" y="104" type="line"/>
      <point x="456" y="71"/>
      <point x="385" y="18"/>
      <point x="290" y="18" type="curve"/>
      <point x="166" y="18"/>
      <point x="89" y="109"/>
      <point x="89" y="250" type="curve" smooth="yes"/>
      <point x="89" y="416"/>
      <point x="183" y="512"/>
    </contour>
    <contour>
      <point x="478" y="88" type="line"/>
      <point x="480" y="84" type="line"/>
      <point x="480" y="0" type="line"/>
      <point x="508" y="0" type="line"/>
      <point x="508" y="698" type="line"/>
      <point x="478" y="688" type="line"/>
    </contour>
  </outline>
</glyph>
<glyph name="g" format="1">
  <advance width="597"/>
  <unicode hex="0067"/>
  <outline>
    <contour>
      <point x="508" y="52" type="curve"/>
      <point x="508" y="498" type="line"/>
      <point x="462" y="518"/>
      <point x="404" y="540"/>
      <point x="328" y="540" type="curve"/>
      <point x="170" y="540"/>
      <point x="59" y="437"/>
      <point x="59" y="259" type="curve" smooth="yes"/>
      <point x="59" y="105"/>
      <point x="150" y="20"/>
      <point x="290" y="20" type="curve"/>
      <point x="385" y="20"/>
      <point x="460" y="73"/>
      <point x="488" y="103" type="curve"/>
      <point x="488" y="134" type="line"/>
      <point x="456" y="101"/>
      <point x="385" y="48"/>
      <point x="290" y="48" type="curve"/>
      <point x="167" y="48"/>
      <point x="89" y="126"/>
      <point x="89" y="259" type="curve" smooth="yes"/>
      <point x="89" y="419"/>
      <point x="184" y="512"/>
      <point x="328" y="512" type="curve"/>
      <point x="400" y="512"/>
      <point x="445" y="494"/>
      <point x="488" y="477" type="curve"/>
      <point x="478" y="498" type="line"/>
      <point x="478" y="52" type="line"/>
      <point x="478" y="-78"/>
      <point x="394" y="-140"/>
      <point x="282" y="-140" type="curve" smooth="yes"/>
      <point x="193" y="-140"/>
      <point x="126" y="-105"/>
      <point x="78" y="-76" type="curve"/>
      <point x="78" y="-110" type="line"/>
      <point x="122" y="-136"/>
      <point x="195" y="-168"/>
      <point x="282" y="-168" type="curve" smooth="yes"/>
      <point x="410" y="-168"/>
      <point x="508" y="-98"/>
    </contour>
    <contour>
      <point x="313" y="186" type="move" name="center"/>
    </contour>
  </outline>
</glyph>
<glyph name="i" format="1">
  <advance width="208"/>
  <unicode hex="0069"/>
  <outline>
    <contour>
      <point x="89" y="530" type="line"/>
      <point x="89" y="0" type="line"/>
      <point x="119" y="0" type="line"/>
      <point x="119" y="530" type="line"/>
    </contour>
    <contour>
      <point x="104" y="628" type="curve" smooth="yes"/>
      <point x="121" y="628"/>
      <point x="135" y="642"/>
      <point x="135" y="659" type="curve" smooth="yes"/>
      <point x="135" y="676"/>
      <point x="121" y="690"/>
      <point x="104" y="690" type="curve" smooth="yes"/>
      <point x="87" y="690"/>
      <point x="73" y="676"/>
      <point x="73" y="659" type="curve" smooth="yes"/>
      <point x="73" y="642"/>
      <point x="87" y="628"/>
    </contour>
  </outline>
</glyph>
<glyph name="n" format="1">
  <advance width="599"/>
  <unicode hex="006E"/>
  <outline>
    <contour>
      <point x="89" y="530" type="line"/>
      <point x="89" y="0" type="line"/>
      <point x="119" y="0" type="line"/>
      <point x="119" y="444" type="line"/>
      <point x="117" y="458" type="line"/>
      <point x="117" y="530" type="line"/>
    </contour>
    <contour>
      <point x="326" y="512" type="curve" smooth="yes"/>
      <point x="414" y="512"/>
      <point x="485" y="461"/>
      <point x="485" y="340" type="curve" smooth="yes"/>
      <point x="485" y="0" type="line"/>
      <point x="515" y="0" type="line"/>
      <point x="515" y="340" type="line" smooth="yes"/>
      <point x="515" y="483"/>
      <point x="429" y="540"/>
      <point x="326" y="540" type="curve" smooth="yes"/>
      <point x="229" y="540"/>
      <point x="160" y="492"/>
      <point x="112" y="456" type="curve"/>
      <point x="115" y="430" type="line"/>
      <point x="157" y="461"/>
      <point x="239" y="512"/>
    </contour>
  </outline>
</glyph>
<glyph name="r" format="1">
  <advance width="403"/>
  <unicode hex="0072"/>
  <outline>
    <contour>
      <point x="89" y="530" type="line"/>
      <point x="89" y="0" type="line"/>
      <point x="119" y="0" type="line"/>
      <point x="119" y="424" type="line"/>
      <point x="117" y="438" type="line"/>
      <point x="117" y="530" type="line"/>
    </contour>
    <contour>
      <point x="302" y="540" type="curve"/>
      <point x="225" y="540"/>
      <point x="157" y="483"/>
      <point x="112" y="436" type="curve"/>
      <point x="115" y="410" type="line"/>
      <point x="154" y="452"/>
      <point x="235" y="512"/>
      <point x="300" y="512" type="curve"/>
      <point x="334" y="512"/>
      <point x="358" y="502"/>
      <point x="379" y="487" type="curve"/>
      <point x="379" y="517" type="line"/>
      <point x="357" y="532"/>
      <point x="331" y="540"/>
    </contour>
  </outline>
</glyph>
<glyph name="t" format="1">
  <advance width="395"/>
  <unicode hex="0074"/>
  <outline>
    <contour>
      <point x="356" y="24" type="curve"/>
      <point x="356" y="56" type="line"/>
      <point x="330" y="36"/>
      <point x="293" y="19"/>
      <point x="248" y="19" type="curve"/>
      <point x="180" y="19"/>
      <point x="142" y="53"/>
      <point x="142" y="128" type="curve"/>
      <point x="142" y="502" type="line"/>
      <point x="349" y="502" type="line"/>
      <point x="349" y="530" type="line"/>
      <point x="142" y="530" type="line"/>
      <point x="142" y="630" type="line"/>
      <point x="132" y="630" type="line"/>
      <point x="29" y="512" type="line"/>
      <point x="29" y="502" type="line"/>
      <point x="112" y="502" type="line"/>
      <point x="112" y="130" type="line"/>
      <point x="112" y="16"/>
      <point x="183" y="-10"/>
      <point x="247" y="-10" type="curve"/>
      <point x="299" y="-10"/>
      <point x="336" y="8"/>
    </contour>
  </outline>
</glyph>
<glyph name="w" format="1">
  <advance width="823"/>
  <unicode hex="0077"/>
  <outline>
    <contour>
      <point x="205" y="0" type="line"/>
      <point x="238" y="0" type="line"/>
      <point x="412" y="489" type="line"/>
      <point x="585" y="0" type="line"/>
      <point x="618" y="0" type="line"/>
      <point x="798" y="530" type="line"/>
      <point x="765" y="530" type="line"/>
      <point x="601" y="34" type="line"/>
      <point x="428" y="530" type="line"/>
      <point x="395" y="530" type="line"/>
      <point x="222" y="34" type="line"/>
      <point x="58" y="530" type="line"/>
      <point x="25" y="530" type="line"/>
    </contour>
  </outline>
</glyph>
<glyph name="x" format="1">
  <advance width="468"/>
  <unicode hex="0078"/>
  <outline>
    <contour>
      <point x="415" y="0" type="line"/>
      <point x="453" y="0" type="line"/>
      <point x="256" y="275" type="line"/>
      <point x="450" y="530" type="line"/>
      <point x="412" y="530" type="line"/>
      <point x="234" y="293" type="line"/>
      <point x="56" y="530" type="line"/>
      <point x="18" y="530" type="line"/>
      <point x="212" y="273" type="line"/>
      <point x="15" y="0" type="line"/>
      <point x="53" y="0" type="line"/>
      <point x="234" y="256" type="line"/>
    </contour>
  </outline>
</glyph>
<glyph name="y" format="1">
  <advance width="539"/>
  <unicode hex="0079"/>
  <outline>
    <contour>
      <point x="131" y="-168" type="curve" smooth="yes"/>
      <point x="190" y="-168"/>
      <point x="226" y="-134"/>
      <point x="258" y="-61" type="curve" smooth="yes"/>
      <point x="520" y="530" type="line"/>
      <point x="487" y="530" type="line"/>
      <point x="259" y="11" type="line"/>
      <point x="283" y="10" type="line"/>
      <point x="60" y="530" type="line"/>
      <point x="27" y="530" type="line"/>
      <point x="256" y="3" type="line"/>
      <point x="228" y="-61" type="line" smooth="yes"/>
      <point x="207" y="-110"/>
      <point x="173" y="-140"/>
      <point x="130" y="-140" type="curve" smooth="yes"/>
      <point x="89" y="-140"/>
      <point x="51" y="-113"/>
      <point x="34" y="-91" type="curve"/>
      <point x="34" y="-130" type="line"/>
      <point x="47" y="-144"/>
      <point x="83" y="-168"/>
    </contour>
  </outline>
</glyph>
<glyph name="z" format="1">
  <advance width="528"/>
  <unicode hex="007A"/>
  <outline>
    <contour>
      <point x="484" y="0" type="line"/>
      <point x="484" y="28" type="line"/>
      <point x="87" y="28" type="line"/>
      <point x="464" y="512" type="line"/>
      <point x="464" y="530" type="line"/>
      <point x="64" y="530" type="line"/>
      <point x="64" y="502" type="line"/>
      <point x="422" y="502" type="line"/>
      <point x="44" y="18" type="line"/>
      <point x="44" y="0" type="line"/>
    </contour>
  </outline>
</glyph>
<glyph name="bar" format="1">
  <advance width="236"/>
  <unicode hex="007C"/>
  <outline>
    <contour>
      <point x="132" y="-158" type="line"/>
      <point x="132" y="688" type="line"/>
      <point x="104" y="688" type="line"/>
      <point x="104" y="-158" type="line"/>
    </contour>
  </outline>
</glyph>
<glyph name="asciitilde" format="1">
  <advance width="500"/>
  <unicode hex="007E"/>
  <outline>
    <contour>
      <point x="69" y="314" type="line"/>
      <point x="90" y="339"/>
      <point x="117" y="365"/>
      <point x="159" y="365" type="curve" smooth="yes"/>
      <point x="228" y="365"/>
      <point x="262" y="292"/>
      <point x="341" y="292" type="curve" smooth="yes"/>
      <point x="377" y="292"/>
      <point x="408" y="311"/>
      <point x="431" y="332" type="curve"/>
      <point x="431" y="367" type="line"/>
      <point x="406" y="345"/>
      <point x="373" y="323"/>
      <point x="341" y="323" type="curve" smooth="yes"/>
      <point x="271" y="323"/>
      <point x="239" y="396"/>
      <point x="160" y="396" type="curve" smooth="yes"/>
      <point x="120" y="396"/>
      <point x="89" y="371"/>
      <point x="69" y="349" type="curve"/>
    </contour>
  </outline>
</glyph>
<glyph name="exclamdown" format="1">
  <advance width="241"/>
  <unicode hex="00A1"/>
  <outline>
    <contour>
      <point x="100" y="-158" type="curve"/>
      <point x="140" y="-158" type="line"/>
      <point x="140" y="-33"/>
      <point x="130" y="204"/>
      <point x="130" y="325" type="curve"/>
      <point x="110" y="325" type="line"/>
      <point x="110" y="205"/>
      <point x="100" y="-33"/>
    </contour>
    <contour>
      <point x="88" y="503" type="curve" smooth="yes"/>
      <point x="88" y="485"/>
      <point x="103" y="470"/>
      <point x="120" y="470" type="curve" smooth="yes"/>
      <point x="138" y="470"/>
      <point x="153" y="485"/>
      <point x="153" y="503" type="curve" smooth="yes"/>
      <point x="153" y="520"/>
      <point x="138" y="535"/>
      <point x="120" y="535" type="curve" smooth="yes"/>
      <point x="103" y="535"/>
      <point x="88" y="520"/>
    </contour>
  </outline>
</glyph>
<glyph name="currency" format="1">
  <advance width="547"/>
  <unicode hex="00A4"/>
  <outline>
    <contour>
      <point x="153" y="172" type="line"/>
      <point x="131" y="194" type="line"/>
      <point x="44" y="112" type="line"/>
      <point x="65" y="89" type="line"/>
    </contour>
    <contour>
      <point x="435" y="307" type="curve" smooth="yes"/>
      <point x="435" y="210"/>
      <point x="367" y="132"/>
      <point x="273" y="132" type="curve" smooth="yes"/>
      <point x="178" y="132"/>
      <point x="109" y="210"/>
      <point x="109" y="307" type="curve" smooth="yes"/>
      <point x="109" y="403"/>
      <point x="178" y="481"/>
      <point x="273" y="481" type="curve" smooth="yes"/>
      <point x="367" y="481"/>
      <point x="435" y="403"/>
    </contour>
    <contour>
      <point x="44" y="501" type="line"/>
      <point x="131" y="419" type="line"/>
      <point x="153" y="441" type="line"/>
      <point x="65" y="524" type="line"/>
    </contour>
    <contour>
      <point x="273" y="511" type="curve" smooth="yes"/>
      <point x="161" y="510"/>
      <point x="78" y="420"/>
      <point x="77" y="307" type="curve" smooth="yes"/>
      <point x="78" y="196"/>
      <point x="161" y="102"/>
      <point x="273" y="102" type="curve" smooth="yes"/>
      <point x="385" y="102"/>
      <point x="467" y="196"/>
      <point x="467" y="307" type="curve" smooth="yes"/>
      <point x="467" y="420"/>
      <point x="385" y="511"/>
    </contour>
    <contour>
      <point x="503" y="112" type="line"/>
      <point x="416" y="194" type="line"/>
      <point x="394" y="172" type="line"/>
      <point x="482" y="89" type="line"/>
    </contour>
    <contour>
      <point x="394" y="441" type="line"/>
      <point x="416" y="419" type="line"/>
      <point x="503" y="501" type="line"/>
      <point x="482" y="524" type="line"/>
    </contour>
  </outline>
</glyph>
<glyph name="yen" format="1">
  <advance width="578"/>
  <unicode hex="00A5"/>
  <outline>
    <contour>
      <point x="304" y="329" type="line"/>
      <point x="569" y="688" type="line"/>
      <point x="534" y="688" type="line"/>
      <point x="289" y="356" type="line"/>
      <point x="45" y="688" type="line"/>
      <point x="9" y="688" type="line"/>
      <point x="274" y="329" type="line"/>
      <point x="274" y="0" type="line"/>
      <point x="304" y="0" type="line"/>
    </contour>
    <contour>
      <point x="27" y="176" type="line"/>
      <point x="551" y="176" type="line"/>
      <point x="551" y="204" type="line"/>
      <point x="27" y="204" type="line"/>
    </contour>
    <contour>
      <point x="27" y="303" type="line"/>
      <point x="551" y="303" type="line"/>
      <point x="551" y="331" type="line"/>
      <point x="27" y="331" type="line"/>
    </contour>
  </outline>
</glyph>
<glyph name="macron" format="1">
  <advance width="383"/>
  <unicode hex="00AF"/>
  <outline>
    <contour>
      <point x="64" y="693" type="line"/>
      <point x="64" y="693"/>
      <point x="64" y="663"/>
      <point x="64" y="663" type="curve"/>
      <point x="319" y="663" type="line"/>
      <point x="319" y="693" type="line"/>
    </contour>
  </outline>
</glyph>
<glyph name="cedilla" format="1">
  <advance width="239"/>
  <unicode hex="00B8"/>
  <outline>
    <contour>
      <point x="147" y="0" type="line"/>
      <point x="64" y="-154" type="line"/>
      <point x="96" y="-168" type="line"/>
      <point x="175" y="0" type="line"/>
    </contour>
  </outline>
</glyph>
<glyph name="ordmasculine" format="1">
  <advance width="340"/>
  <unicode hex="00BA"/>
  <outline>
    <contour>
      <point x="170" y="478" type="curve" smooth="yes"/>
      <point x="108" y="478"/>
      <point x="64" y="526"/>
      <point x="64" y="588" type="curve" smooth="yes"/>
      <point x="64" y="650"/>
      <point x="108" y="698"/>
      <point x="170" y="698" type="curve" smooth="yes"/>
      <point x="232" y="698"/>
      <point x="276" y="650"/>
      <point x="276" y="588" type="curve" smooth="yes"/>
      <point x="276" y="526"/>
      <point x="232" y="478"/>
    </contour>
    <contour>
      <point x="170" y="498" type="curve" smooth="yes"/>
      <point x="220" y="498"/>
      <point x="254" y="537"/>
      <point x="254" y="588" type="curve" smooth="yes"/>
      <point x="254" y="639"/>
      <point x="220" y="678"/>
      <point x="170" y="678" type="curve" smooth="yes"/>
      <point x="121" y="678"/>
      <point x="86" y="639"/>
      <point x="86" y="588" type="curve" smooth="yes"/>
      <point x="86" y="537"/>
      <point x="121" y="498"/>
    </contour>
  </outline>
</glyph>
<glyph name="Aring" format="1">
  <advance width="660"/>
  <unicode hex="00C5"/>
  <outline>
    <contour>
      <point x="330" y="663" type="curve" smooth="yes"/>
      <point x="389" y="663"/>
      <point x="433" y="708"/>
      <point x="433" y="763" type="curve" smooth="yes"/>
      <point x="433" y="818"/>
      <point x="389" y="863"/>
      <point x="330" y="863" type="curve" smooth="yes"/>
      <point x="272" y="863"/>
      <point x="227" y="818"/>
      <point x="227" y="763" type="curve" smooth="yes"/>
      <point x="227" y="708"/>
      <point x="272" y="663"/>
    </contour>
    <contour>
      <point x="331" y="690" type="curve" smooth="yes"/>
      <point x="291" y="690"/>
      <point x="255" y="720"/>
      <point x="255" y="763" type="curve" smooth="yes"/>
      <point x="255" y="806"/>
      <point x="291" y="837"/>
      <point x="331" y="837" type="curve" smooth="yes"/>
      <point x="371" y="837"/>
      <point x="405" y="806"/>
      <point x="405" y="763" type="curve" smooth="yes"/>
      <point x="405" y="720"/>
      <point x="371" y="690"/>
    </contour>
    <component base="A"/>
  </outline>
</glyph>
<glyph name="Dcroat" format="1">
  <advance width="747"/>
  <unicode hex="0110"/>
  <outline>
    <contour>
      <point x="9" y="330" type="line"/>
      <point x="399" y="330" type="line"/>
      <point x="399" y="358" type="line"/>
      <point x="9" y="358" type="line"/>
    </contour>
    <contour>
      <point x="99" y="688" type="line"/>
      <point x="99" y="0" type="line"/>
      <point x="129" y="0" type="line"/>
      <point x="129" y="688" type="line"/>
    </contour>
    <contour>
      <point x="117" y="28" type="line"/>
      <point x="117" y="0" type="line"/>
      <point x="307" y="0" type="line" smooth="yes"/>
      <point x="534" y="0"/>
      <point x="683" y="136"/>
      <point x="683" y="343" type="curve" smooth="yes"/>
      <point x="683" y="552"/>
      <point x="534" y="688"/>
      <point x="307" y="688" type="curve" smooth="yes"/>
      <point x="117" y="688" type="line"/>
      <point x="117" y="660" type="line"/>
      <point x="307" y="660" type="line" smooth="yes"/>
      <point x="516" y="660"/>
      <point x="653" y="534"/>
      <point x="653" y="343" type="curve" smooth="yes"/>
      <point x="653" y="154"/>
      <point x="516" y="28"/>
      <point x="307" y="28" type="curve" smooth="yes"/>
    </contour>
  </outline>
</glyph>
<glyph name="ij" format="1">
  <advance width="422"/>
  <unicode hex="0133"/>
  <outline>
    <contour>
      <point x="89" y="530" type="line"/>
      <point x="89" y="0" type="line"/>
      <point x="119" y="0" type="line"/>
      <point x="119" y="530" type="line"/>
    </contour>
    <contour>
      <point x="104" y="628" type="curve" smooth="yes"/>
      <point x="121" y="628"/>
      <point x="135" y="642"/>
      <point x="135" y="659" type="curve" smooth="yes"/>
      <point x="135" y="676"/>
      <point x="121" y="690"/>
      <point x="104" y="690" type="curve" smooth="yes"/>
      <point x="87" y="690"/>
      <point x="73" y="676"/>
      <point x="73" y="659" type="curve" smooth="yes"/>
      <point x="73" y="642"/>
      <point x="87" y="628"/>
    </contour>
    <contour>
      <point x="254" y="-168" type="line"/>
      <point x="297" y="-145"/>
      <point x="333" y="-107"/>
      <point x="333" y="-38" type="curve"/>
      <point x="333" y="530" type="line"/>
      <point x="303" y="530" type="line"/>
      <point x="303" y="-40" type="line"/>
      <point x="303" y="-89"/>
      <point x="280" y="-122"/>
      <point x="236" y="-143" type="curve"/>
    </contour>
    <contour>
      <point x="318" y="627" type="curve" smooth="yes"/>
      <point x="335" y="627"/>
      <point x="349" y="641"/>
      <point x="349" y="658" type="curve" smooth="yes"/>
      <point x="349" y="675"/>
      <point x="335" y="689"/>
      <point x="318" y="689" type="curve" smooth="yes"/>
      <point x="301" y="689"/>
      <point x="287" y="675"/>
      <point x="287" y="658" type="curve" smooth="yes"/>
      <point x="287" y="641"/>
      <point x="301" y="627"/>
    </contour>
  </outline>
</glyph>
<glyph name="eng" format="1">
  <advance width="599"/>
  <unicode hex="014B"/>
  <outline>
    <contour>
      <point x="119" y="0" type="line"/>
      <point x="119" y="444" type="line"/>
      <point x="117" y="458" type="line"/>
      <point x="117" y="530" type="line"/>
      <point x="89" y="530" type="line"/>
      <point x="89" y="0" type="line"/>
    </contour>
    <contour>
      <point x="515" y="-38" type="curve"/>
      <point x="515" y="340" type="line"/>
      <point x="515" y="483"/>
      <point x="429" y="540"/>
      <point x="326" y="540" type="curve" smooth="yes"/>
      <point x="229" y="540"/>
      <point x="160" y="492"/>
      <point x="112" y="456" type="curve"/>
      <point x="115" y="430" type="line"/>
      <point x="157" y="461"/>
      <point x="239" y="512"/>
      <point x="326" y="512" type="curve" smooth="yes"/>
      <point x="414" y="512"/>
      <point x="485" y="461"/>
      <point x="485" y="340" type="curve"/>
      <point x="485" y="-40" type="line"/>
      <point x="485" y="-89"/>
      <point x="462" y="-122"/>
      <point x="418" y="-143" type="curve"/>
      <point x="436" y="-168" type="line"/>
      <point x="479" y="-145"/>
      <point x="515" y="-107"/>
    </contour>
  </outline>
</glyph>
<glyph name="oslashacute" format="1">
  <advance width="667"/>
  <unicode hex="01FF"/>
  <outline>
    <contour>
      <point x="333" y="-10" type="curve" smooth="yes"/>
      <point x="179" y="-10"/>
      <point x="68" y="109"/>
      <point x="68" y="265" type="curve" smooth="yes"/>
      <point x="68" y="421"/>
      <point x="179" y="540"/>
      <point x="333" y="540" type="curve" smooth="yes"/>
      <point x="488" y="540"/>
      <point x="599" y="421"/>
      <point x="599" y="265" type="curve" smooth="yes"/>
      <point x="599" y="109"/>
      <point x="488" y="-10"/>
    </contour>
    <contour>
      <point x="333" y="18" type="curve" smooth="yes"/>
      <point x="473" y="18"/>
      <point x="569" y="126"/>
      <point x="569" y="265" type="curve" smooth="yes"/>
      <point x="569" y="404"/>
      <point x="473" y="512"/>
      <point x="333" y="512" type="curve" smooth="yes"/>
      <point x="195" y="512"/>
      <point x="98" y="404"/>
      <point x="98" y="265" type="curve" smooth="yes"/>
      <point x="98" y="126"/>
      <point x="195" y="18"/>
    </contour>
    <contour>
      <point x="608" y="530" type="line"/>
      <point x="96" y="0" type="line"/>
      <point x="59" y="0" type="line"/>
      <point x="571" y="530" type="line"/>
    </contour>
    <component base="acute" xOffset="251"/>
  </outline>
</glyph>
<glyph name="caron" format="1">
  <advance width="406"/>
  <unicode hex="02C7"/>
  <outline>
    <contour>
      <point x="186" y="600" type="line"/>
      <point x="64" y="756" type="line"/>
      <point x="97" y="756" type="line"/>
      <point x="203" y="628" type="line"/>
      <point x="309" y="756" type="line"/>
      <point x="342" y="756" type="line"/>
      <point x="220" y="600" type="line"/>
    </contour>
  </outline>
</glyph>
<glyph name="ring" format="1">
  <advance width="334"/>
  <unicode hex="02DA"/>
  <outline>
    <contour>
      <point x="167" y="578" type="curve" smooth="yes"/>
      <point x="226" y="578"/>
      <point x="270" y="623"/>
      <point x="270" y="678" type="curve" smooth="yes"/>
      <point x="270" y="733"/>
      <point x="226" y="778"/>
      <point x="167" y="778" type="curve" smooth="yes"/>
      <point x="109" y="778"/>
      <point x="64" y="733"/>
      <point x="64" y="678" type="curve" smooth="yes"/>
      <point x="64" y="623"/>
      <point x="109" y="578"/>
    </contour>
    <contour>
      <point x="168" y="605" type="curve" smooth="yes"/>
      <point x="128" y="605"/>
      <point x="92" y="635"/>
      <point x="92" y="678" type="curve" smooth="yes"/>
      <point x="92" y="721"/>
      <point x="128" y="752"/>
      <point x="168" y="752" type="curve" smooth="yes"/>
      <point x="208" y="752"/>
      <point x="242" y="721"/>
      <point x="242" y="678" type="curve" smooth="yes"/>
      <point x="242" y="635"/>
      <point x="208" y="605"/>
    </contour>
    <contour>
      <point x="157" y="678" type="move" name="center"/>
    </contour>
  </outline>
</glyph>
<glyph name="hungarumlaut" format="1">
  <advance width="390"/>
  <unicode hex="02DD"/>
  <outline>
    <contour>
      <point x="162" y="756" type="line"/>
      <point x="64" y="600" type="line"/>
      <point x="64" y="600"/>
      <point x="95" y="600"/>
      <point x="95" y="600" type="curve"/>
      <point x="205" y="756" type="line"/>
    </contour>
    <contour>
      <point x="283" y="756" type="line"/>
      <point x="185" y="600" type="line"/>
      <point x="185" y="600"/>
      <point x="216" y="600"/>
      <point x="216" y="600" type="curve"/>
      <point x="326" y="756" type="line"/>
    </contour>
    <contour>
      <point x="145" y="678" type="move" name="center"/>
    </contour>
  </outline>
</glyph>
<glyph name="pi" format="1">
  <advance width="612"/>
  <unicode hex="03C0"/>
  <outline>
    <contour>
      <point x="44" y="451" type="line"/>
      <point x="558" y="451" type="line"/>
      <point x="558" y="479" type="line"/>
      <point x="44" y="479" type="line"/>
    </contour>
    <contour>
      <point x="126" y="471" type="line"/>
      <point x="126" y="0" type="line"/>
      <point x="156" y="0" type="line"/>
      <point x="156" y="471" type="line"/>
    </contour>
    <contour>
      <point x="464" y="111" type="curve"/>
      <point x="464" y="471" type="line"/>
      <point x="434" y="471" type="line"/>
      <point x="434" y="113" type="line"/>
      <point x="434" y="44"/>
      <point x="470" y="6"/>
      <point x="513" y="-17" type="curve"/>
      <point x="531" y="8" type="line"/>
      <point x="487" y="29"/>
      <point x="464" y="62"/>
    </contour>
  </outline>
</glyph>
<glyph name="quoteleft" format="1">
  <advance width="141"/>
  <unicode hex="2018"/>
  <outline>
    <contour>
      <point x="24" y="509" type="line"/>
      <point x="63" y="509" type="line"/>
      <point x="117" y="688" type="line"/>
      <point x="95" y="688" type="line"/>
    </contour>
  </outline>
</glyph>
<glyph name="quotesinglbase" format="1">
  <advance width="141"/>
  <unicode hex="201A"/>
  <outline>
    <contour>
      <point x="117" y="55" type="line"/>
      <point x="78" y="55" type="line"/>
      <point x="24" y="-124" type="line"/>
      <point x="46" y="-124" type="line"/>
    </contour>
  </outline>
</glyph>
<glyph name="quotedblleft" format="1">
  <advance width="260"/>
  <unicode hex="201C"/>
  <outline>
    <contour>
      <point x="143" y="509" type="line"/>
      <point x="182" y="509" type="line"/>
      <point x="236" y="688" type="line"/>
      <point x="214" y="688" type="line"/>
    </contour>
    <contour>
      <point x="24" y="509" type="line"/>
      <point x="63" y="509" type="line"/>
      <point x="117" y="688" type="line"/>
      <point x="95" y="688" type="line"/>
    </contour>
  </outline>
</glyph>
<glyph name="quotedblright" format="1">
  <advance width="260"/>
  <unicode hex="201D"/>
  <outline>
    <contour>
      <point x="117" y="688" type="line"/>
      <point x="78" y="688" type="line"/>
      <point x="24" y="509" type="line"/>
      <point x="46" y="509" type="line"/>
    </contour>
    <contour>
      <point x="236" y="688" type="line"/>
      <point x="197" y="688" type="line"/>
      <point x="143" y="509" type="line"/>
      <point x="165" y="509" type="line"/>
    </contour>
  </outline>
</glyph>
<glyph name="quotedblbase" format="1">
  <advance width="260"/>
  <unicode hex="201E"/>
  <outline>
    <contour>
      <point x="117" y="55" type="line"/>
      <point x="78" y="55" type="line"/>
      <point x="24" y="-124" type="line"/>
      <point x="46" y="-124" type="line"/>
    </contour>
    <contour>
      <point x="236" y="55" type="line"/>
      <point x="197" y="55" type="line"/>
      <point x="143" y="-124" type="line"/>
      <point x="165" y="-124" type="line"/>
    </contour>
  </outline>
</glyph>
<glyph name="dagger" format="1">
  <advance width="308"/>
  <unicode hex="2020"/>
  <outline>
    <contour>
      <point x="168" y="0" type="line"/>
      <point x="168" y="688" type="line"/>
      <point x="140" y="688" type="line"/>
      <point x="140" y="0" type="line"/>
    </contour>
    <contour>
      <point x="19" y="502" type="line"/>
      <point x="289" y="502" type="line"/>
      <point x="289" y="530" type="line"/>
      <point x="19" y="530" type="line"/>
    </contour>
  </outline>
</glyph>
<glyph name="bullet" format="1">
  <advance width="272"/>
  <unicode hex="2022"/>
  <outline>
    <contour>
      <point x="136" y="242" type="curve" smooth="yes"/>
      <point x="193" y="242"/>
      <point x="238" y="287"/>
      <point x="238" y="344" type="curve" smooth="yes"/>
      <point x="238" y="401"/>
      <point x="193" y="446"/>
      <point x="136" y="446" type="curve" smooth="yes"/>
      <point x="79" y="446"/>
      <point x="34" y="401"/>
      <point x="34" y="344" type="curve" smooth="yes"/>
      <point x="34" y="287"/>
      <point x="79" y="242"/>
    </contour>
  </outline>
</glyph>
<glyph name="perthousand" format="1">
  <advance width="1053"/>
  <unicode hex="2030"/>
  <outline>
    <contour>
      <point x="190" y="698" type="curve" smooth="yes"/>
      <point x="269" y="698"/>
      <point x="332" y="640"/>
      <point x="332" y="541" type="curve" smooth="yes"/>
      <point x="332" y="442"/>
      <point x="269" y="384"/>
      <point x="190" y="384" type="curve" smooth="yes"/>
      <point x="112" y="384"/>
      <point x="49" y="442"/>
      <point x="49" y="541" type="curve" smooth="yes"/>
      <point x="49" y="640"/>
      <point x="112" y="698"/>
    </contour>
    <contour>
      <point x="117" y="0" type="line"/>
      <point x="150" y="0" type="line"/>
      <point x="602" y="688" type="line"/>
      <point x="571" y="688" type="line"/>
    </contour>
    <contour>
      <point x="190" y="673" type="curve" smooth="yes"/>
      <point x="125" y="673"/>
      <point x="76" y="622"/>
      <point x="76" y="543" type="curve"/>
      <point x="76" y="462"/>
      <point x="125" y="410"/>
      <point x="190" y="410" type="curve" smooth="yes"/>
      <point x="255" y="410"/>
      <point x="304" y="462"/>
      <point x="304" y="543" type="curve" smooth="yes"/>
      <point x="304" y="622"/>
      <point x="255" y="673"/>
    </contour>
    <contour>
      <point x="530" y="304" type="curve" smooth="yes"/>
      <point x="609" y="304"/>
      <point x="672" y="246"/>
      <point x="672" y="147" type="curve" smooth="yes"/>
      <point x="672" y="48"/>
      <point x="609" y="-10"/>
      <point x="530" y="-10" type="curve" smooth="yes"/>
      <point x="452" y="-10"/>
      <point x="389" y="48"/>
      <point x="389" y="147" type="curve" smooth="yes"/>
      <point x="389" y="246"/>
      <point x="452" y="304"/>
    </contour>
    <contour>
      <point x="416" y="149" type="curve"/>
      <point x="416" y="68"/>
      <point x="465" y="16"/>
      <point x="530" y="16" type="curve" smooth="yes"/>
      <point x="595" y="16"/>
      <point x="644" y="68"/>
      <point x="644" y="149" type="curve" smooth="yes"/>
      <point x="644" y="228"/>
      <point x="595" y="279"/>
      <point x="530" y="279" type="curve" smooth="yes"/>
      <point x="465" y="279"/>
      <point x="416" y="228"/>
    </contour>
    <contour>
      <point x="862" y="304" type="curve" smooth="yes"/>
      <point x="941" y="304"/>
      <point x="1004" y="246"/>
      <point x="1004" y="147" type="curve" smooth="yes"/>
      <point x="1004" y="48"/>
      <point x="941" y="-10"/>
      <point x="862" y="-10" type="curve" smooth="yes"/>
      <point x="784" y="-10"/>
      <point x="721" y="48"/>
      <point x="721" y="147" type="curve" smooth="yes"/>
      <point x="721" y="246"/>
      <point x="784" y="304"/>
    </contour>
    <contour>
      <point x="748" y="149" type="curve"/>
      <point x="748" y="68"/>
      <point x="797" y="16"/>
      <point x="862" y="16" type="curve" smooth="yes"/>
      <point x="927" y="16"/>
      <point x="976" y="68"/>
      <point x="976" y="149" type="curve" smooth="yes"/>
      <point x="976" y="228"/>
      <point x="927" y="279"/>
      <point x="862" y="279" type="curve" smooth="yes"/>
      <point x="797" y="279"/>
      <point x="748" y="228"/>
    </contour>
  </outline>
</glyph>
<glyph name="guilsinglright" format="1">
  <advance width="244"/>
  <unicode hex="203A"/>
  <outline>
    <contour>
      <point x="200" y="248" type="line"/>
      <point x="54" y="166" type="line"/>
      <point x="54" y="199" type="line"/>
      <point x="175" y="265" type="line"/>
      <point x="54" y="331" type="line"/>
      <point x="54" y="364" type="line"/>
      <point x="200" y="282" type="line"/>
    </contour>
  </outline>
</glyph>
<glyph name="fraction" format="1">
  <advance width="60"/>
  <unicode hex="2044"/>
  <outline>
    <contour>
      <point x="-211" y="0" type="line"/>
      <point x="-180" y="0" type="line"/>
      <point x="271" y="688" type="line"/>
      <point x="242" y="688" type="line"/>
    </contour>
  </outline>
</glyph>
<glyph name="partialdiff" format="1">
  <advance width="621"/>
  <unicode hex="2202"/>
  <outline>
    <contour>
      <point x="523" y="319" type="curve"/>
      <point x="524" y="306" type="line"/>
      <point x="526" y="293"/>
      <point x="527" y="280"/>
      <point x="527" y="266" type="curve"/>
      <point x="527" y="92"/>
      <point x="426" y="18"/>
      <point x="303" y="18" type="curve"/>
      <point x="178" y="18"/>
      <point x="89" y="95"/>
      <point x="89" y="226" type="curve"/>
      <point x="89" y="349"/>
      <point x="184" y="414"/>
      <point x="291" y="414" type="curve"/>
      <point x="406" y="414"/>
      <point x="481" y="356"/>
      <point x="532" y="286" type="curve"/>
      <point x="537" y="305" type="line"/>
      <point x="500" y="374"/>
      <point x="414" y="442"/>
      <point x="291" y="442" type="curve"/>
      <point x="170" y="442"/>
      <point x="59" y="368"/>
      <point x="59" y="226" type="curve"/>
      <point x="59" y="77"/>
      <point x="164" y="-10"/>
      <point x="303" y="-10" type="curve"/>
      <point x="441" y="-10"/>
      <point x="557" y="74"/>
      <point x="557" y="266" type="curve"/>
      <point x="557" y="466"/>
      <point x="374" y="635"/>
      <point x="275" y="688" type="curve"/>
      <point x="228" y="688" type="line"/>
      <point x="310" y="645"/>
      <point x="492" y="503"/>
    </contour>
  </outline>
</glyph>
<glyph name="minus" format="1">
  <advance width="499"/>
  <unicode hex="2212"/>
  <outline>
    <contour>
      <point x="69" y="330" type="line"/>
      <point x="431" y="330" type="line"/>
      <point x="431" y="358" type="line"/>
      <point x="69" y="358" type="line"/>
    </contour>
  </outline>
</glyph>
<glyph name="integral" format="1">
  <advance width="466"/>
  <unicode hex="222B"/>
  <outline>
    <contour>
      <point x="248" y="-10" type="curve"/>
      <point x="248" y="563" type="line"/>
      <point x="248" y="626"/>
      <point x="280" y="669"/>
      <point x="343" y="669" type="curve"/>
      <point x="388" y="669"/>
      <point x="426" y="652"/>
      <point x="452" y="632" type="curve"/>
      <point x="452" y="663" type="line"/>
      <point x="435" y="677"/>
      <point x="395" y="698"/>
      <point x="343" y="698" type="curve"/>
      <point x="284" y="698"/>
      <point x="218" y="662"/>
      <point x="218" y="561" type="curve"/>
      <point x="218" y="-12" type="line"/>
      <point x="218" y="-75"/>
      <point x="186" y="-118"/>
      <point x="123" y="-118" type="curve"/>
      <point x="78" y="-118"/>
      <point x="40" y="-101"/>
      <point x="14" y="-81" type="curve"/>
      <point x="14" y="-112" type="line"/>
      <point x="31" y="-126"/>
      <point x="71" y="-147"/>
      <point x="123" y="-147" type="curve"/>
      <point x="182" y="-147"/>
      <point x="248" y="-111"/>
    </contour>
  </outline>
</glyph>
<glyph name="notequal" format="1">
  <advance width="499"/>
  <unicode hex="2260"/>
  <outline>
    <contour>
      <point x="120" y="154" type="line"/>
      <point x="155" y="154" type="line"/>
      <point x="395" y="534" type="line"/>
      <point x="395" y="534"/>
      <point x="360" y="534"/>
      <point x="360" y="534" type="curve"/>
    </contour>
    <contour>
      <point x="69" y="259" type="line"/>
      <point x="431" y="259" type="line"/>
      <point x="431" y="289" type="line"/>
      <point x="69" y="289" type="line"/>
    </contour>
    <contour>
      <point x="69" y="399" type="line"/>
      <point x="431" y="399" type="line"/>
      <point x="431" y="429" type="line"/>
      <point x="69" y="429" type="line"/>
    </contour>
  </outline>
</glyph>
<glyph name="lessequal" format="1">
  <advance width="499"/>
  <unicode hex="2264"/>
  <outline>
    <contour>
      <point x="69" y="158" type="line"/>
      <point x="431" y="158" type="line"/>
      <point x="431" y="188" type="line"/>
      <point x="69" y="188" type="line"/>
    </contour>
    <contour>
      <point x="431" y="204" type="line"/>
      <point x="81" y="363" type="line"/>
      <point x="79" y="341" type="line"/>
      <point x="431" y="499" type="line"/>
      <point x="431" y="532" type="line"/>
      <point x="69" y="365" type="line"/>
      <point x="69" y="339" type="line"/>
      <point x="431" y="171" type="line"/>
    </contour>
  </outline>
</glyph>
<glyph name="cedilla.uc" format="1">
  <advance width="239"/>
  <outline>
    <contour>
      <point x="147" y="0" type="line"/>
      <point x="64" y="-154" type="line"/>
      <point x="96" y="-168" type="line"/>
      <point x="175" y="0" type="line"/>
    </contour>
  </outline>
</glyph>
<glyph name="commaaccent" format="1">
  <advance width="205"/>
  <outline>
    <contour>
      <point x="141" y="-51" type="line"/>
      <point x="102" y="-51" type="line"/>
      <point x="64" y="-178" type="line"/>
      <point x="91" y="-178" type="line"/>
    </contour>
    <contour>
      <point x="112" y="-115" type="move" name="center"/>
    </contour>
  </outline>
</glyph>
<glyph name="dotaccent.uc" format="1">
  <advance width="182"/>
  <outline>
    <contour>
      <point x="64" y="796"/>
      <point x="76" y="784"/>
      <point x="91" y="784" type="curve" smooth="yes"/>
      <point x="106" y="784"/>
      <point x="118" y="796"/>
      <point x="118" y="811" type="curve" smooth="yes"/>
      <point x="118" y="825"/>
      <point x="106" y="838"/>
      <point x="91" y="838" type="curve" smooth="yes"/>
      <point x="76" y="838"/>
      <point x="64" y="825"/>
      <point x="64" y="811" type="curve" smooth="yes"/>
    </contour>
  </outline>
</glyph>
<glyph name="f_b" format="1">
  <advance width="899"/>
  <outline>
    <contour>
      <point x="397" y="667" type="line"/>
      <point x="380" y="677"/>
      <point x="325" y="695"/>
      <point x="268" y="695" type="curve" smooth="yes"/>
      <point x="196" y="695"/>
      <point x="121" y="665"/>
      <point x="121" y="551" type="curve"/>
      <point x="121" y="0" type="line"/>
      <point x="151" y="0" type="line"/>
      <point x="151" y="561" type="line"/>
      <point x="151" y="641"/>
      <point x="202" y="667"/>
      <point x="268" y="667" type="curve" smooth="yes"/>
      <point x="314" y="667"/>
      <point x="364" y="653"/>
      <point x="397" y="637" type="curve"/>
    </contour>
    <contour>
      <point x="38" y="502" type="line"/>
      <point x="288" y="502" type="line"/>
      <point x="288" y="530" type="line"/>
      <point x="38" y="530" type="line"/>
    </contour>
    <contour>
      <point x="421" y="698" type="line"/>
      <point x="391" y="668" type="line"/>
      <point x="391" y="27" type="line"/>
      <point x="444" y="8"/>
      <point x="506" y="-10"/>
      <point x="586" y="-10" type="curve" smooth="yes"/>
      <point x="734" y="-10"/>
      <point x="840" y="91"/>
      <point x="840" y="275" type="curve" smooth="yes"/>
      <point x="840" y="436"/>
      <point x="749" y="540"/>
      <point x="609" y="540" type="curve"/>
      <point x="514" y="540"/>
      <point x="439" y="487"/>
      <point x="411" y="457" type="curve"/>
      <point x="411" y="426" type="line"/>
      <point x="443" y="459"/>
      <point x="514" y="512"/>
      <point x="609" y="512" type="curve"/>
      <point x="733" y="512"/>
      <point x="810" y="416"/>
      <point x="810" y="275" type="curve" smooth="yes"/>
      <point x="810" y="109"/>
      <point x="721" y="18"/>
      <point x="586" y="18" type="curve" smooth="yes"/>
      <point x="510" y="18"/>
      <point x="452" y="35"/>
      <point x="401" y="53" type="curve"/>
      <point x="421" y="27" type="line"/>
    </contour>
  </outline>
</glyph>
<glyph name="f_f" format="1">
  <advance width="614"/>
  <outline>
    <contour>
      <point x="635" y="663" type="line"/>
      <point x="618" y="677"/>
      <point x="578" y="698"/>
      <point x="526" y="698" type="curve"/>
      <point x="462" y="698"/>
      <point x="391" y="659"/>
      <point x="391" y="551" type="curve"/>
      <point x="391" y="0" type="line"/>
      <point x="421" y="0" type="line"/>
      <point x="421" y="553" type="line"/>
      <point x="421" y="622"/>
      <point x="456" y="669"/>
      <point x="526" y="669" type="curve"/>
      <point x="571" y="669"/>
      <point x="609" y="652"/>
      <point x="635" y="632" type="curve"/>
    </contour>
    <contour>
      <point x="337" y="680" type="line"/>
      <point x="317" y="690"/>
      <point x="289" y="698"/>
      <point x="256" y="698" type="curve"/>
      <point x="192" y="698"/>
      <point x="121" y="659"/>
      <point x="121" y="551" type="curve"/>
      <point x="121" y="0" type="line"/>
      <point x="151" y="0" type="line"/>
      <point x="151" y="553" type="line"/>
      <point x="151" y="622"/>
      <point x="186" y="669"/>
      <point x="256" y="669" type="curve"/>
      <point x="287" y="669"/>
      <point x="315" y="661"/>
      <point x="337" y="649" type="curve"/>
    </contour>
    <contour>
      <point x="578" y="530" type="line"/>
      <point x="38" y="530" type="line"/>
      <point x="38" y="502" type="line"/>
      <point x="578" y="502" type="line"/>
    </contour>
  </outline>
</glyph>
<glyph name="f_l" format="1">
  <advance width="520"/>
  <outline>
    <contour>
      <point x="397" y="667" type="line"/>
      <point x="380" y="677"/>
      <point x="325" y="695"/>
      <point x="268" y="695" type="curve" smooth="yes"/>
      <point x="196" y="695"/>
      <point x="121" y="665"/>
      <point x="121" y="551" type="curve"/>
      <point x="121" y="0" type="line"/>
      <point x="151" y="0" type="line"/>
      <point x="151" y="561" type="line"/>
      <point x="151" y="641"/>
      <point x="202" y="667"/>
      <point x="268" y="667" type="curve" smooth="yes"/>
      <point x="314" y="667"/>
      <point x="364" y="653"/>
      <point x="397" y="637" type="curve"/>
    </contour>
    <contour>
      <point x="38" y="502" type="line"/>
      <point x="288" y="502" type="line"/>
      <point x="288" y="530" type="line"/>
      <point x="38" y="530" type="line"/>
    </contour>
    <contour>
      <point x="391" y="668" type="line"/>
      <point x="391" y="0" type="line"/>
      <point x="421" y="0" type="line"/>
      <point x="421" y="698" type="line"/>
    </contour>
  </outline>
</glyph>
<glyph name="four.superior" format="1">
  <advance width="309"/>
  <outline>
    <contour>
      <point x="209" y="321" type="line" name="*16AC2CBE2"/>
      <point x="239" y="321" type="line" name="*16AC2CC4A"/>
      <point x="239" y="641" type="line" name="*16AC2CCB2"/>
      <point x="213" y="641" type="line" name="*16AC2CD1A"/>
      <point x="209" y="602" type="line" name="*16AC2CD82"/>
    </contour>
    <contour>
      <point x="54" y="409" type="line" name="*16AC2CDEA"/>
      <point x="218" y="606" type="line" name="*16AC2CE52"/>
      <point x="213" y="641" type="line" name="*16AC2CEBA"/>
      <point x="32" y="422" type="line" name="*16AC2CF22"/>
    </contour>
    <contour>
      <point x="32" y="422" type="line" name="*16AC2CF8A"/>
      <point x="32" y="422" name="*16AC2CFF2"/>
      <point x="32" y="394" name="*16AC2D05A"/>
      <point x="32" y="394" type="curve" name="*16AC2D0C2"/>
      <point x="290" y="394" type="line" name="*16AC2D12A"/>
      <point x="290" y="422" type="line" name="*16AC2D192"/>
    </contour>
  </outline>
</glyph>
<glyph name="macron.uc" format="1">
  <advance width="383"/>
  <outline>
    <contour>
      <point x="64" y="826" type="line"/>
      <point x="64" y="826"/>
      <point x="64" y="796"/>
      <point x="64" y="796" type="curve"/>
      <point x="319" y="796" type="line"/>
      <point x="319" y="826" type="line"/>
    </contour>
  </outline>
</glyph>
<glyph name="t.alt" format="1">
  <advance width="395"/>
  <outline>
    <contour>
      <point x="356" y="24" type="curve"/>
      <point x="356" y="56" type="line"/>
      <point x="330" y="36"/>
      <point x="293" y="19"/>
      <point x="248" y="19" type="curve"/>
      <point x="180" y="19"/>
      <point x="142" y="53"/>
      <point x="142" y="128" type="curve"/>
      <point x="142" y="502" type="line"/>
      <point x="349" y="502" type="line"/>
      <point x="349" y="530" type="line"/>
      <point x="142" y="530" type="line"/>
      <point x="142" y="630" type="line"/>
      <point x="112" y="620" type="line"/>
      <point x="112" y="530" type="line"/>
      <point x="29" y="530" type="line"/>
      <point x="29" y="502" type="line"/>
      <point x="112" y="502" type="line"/>
      <point x="112" y="130" type="line"/>
      <point x="112" y="16"/>
      <point x="183" y="-10"/>
      <point x="247" y="-10" type="curve"/>
      <point x="299" y="-10"/>
      <point x="336" y="8"/>
    </contour>
  </outline>
</glyph>
<glyph name="tilde.uc" format="1">
  <advance width="391"/>
  <outline>
    <contour>
      <point x="262" y="767" type="curve" smooth="yes"/>
      <point x="287" y="767"/>
      <point x="309" y="779"/>
      <point x="327" y="805" type="curve"/>
      <point x="327" y="848" type="line"/>
      <point x="314" y="817"/>
      <point x="293" y="797"/>
      <point x="264" y="797" type="curve" smooth="yes"/>
      <point x="214" y="797"/>
      <point x="190" y="855"/>
      <point x="131" y="855" type="curve" smooth="yes"/>
      <point x="105" y="855"/>
      <point x="83" y="842"/>
      <point x="64" y="815" type="curve"/>
      <point x="64" y="774" type="line"/>
      <point x="79" y="805"/>
      <point x="100" y="825"/>
      <point x="127" y="825" type="curve" smooth="yes"/>
      <point x="177" y="825"/>
      <point x="203" y="767"/>
    </contour>
  </outline>
</glyph>
